<?xml version="1.0" encoding="UTF-8"?>
<svg id="Layer_2" data-name="Layer 2" xmlns="http://www.w3.org/2000/svg" viewBox="0 0 1030.52 1030.52">
  <defs>
    <style>
      .cls-1 {
        fill: #f0f4ff;
      }
    </style>
  </defs>
  <path class="cls-1" d="M696.96,443.33v147.91c0,1.4-1.15,2.58-2.55,2.61-57.76,1.34-104.34,48.07-105.39,105.92-.02,1.1-.95,2-2.05,2h-149c-1.15,0-2.08-.93-2.07-2.08.46-59.02,20.51-113.38,53.98-156.89,1.44-1.87-.9-4.26-2.81-2.87-42.57,31-94.88,49.45-151.45,49.89-1.14,0-2.08-.92-2.08-2.07v-149.03c0-1.1.9-2.03,2-2.05,58.01-1.05,104.85-47.9,105.91-105.93.02-1.1.95-2,2.05-2h149.02c1.15,0,2.08.93,2.07,2.08-.46,59.01-20.49,113.35-53.95,156.87-1.44,1.87.9,4.26,2.81,2.87,42.41-30.9,94.49-49.31,150.84-49.87,1.46-.01,2.65,1.18,2.65,2.64Z"/>
</svg>