<?xml version="1.0" encoding="UTF-8"?>
<svg id="Layer_2" data-name="Layer 2" xmlns="http://www.w3.org/2000/svg" viewBox="0 0 1030.52 1030.52">
  <defs>
    <style>
      .cls-1 {
        fill: #f0f4ff;
      }
    </style>
  </defs>
  <path class="cls-1" d="M353.12,482.52v62.63c0,.59-.49,1.09-1.08,1.1-24.46.57-44.18,20.35-44.63,44.85,0,.47-.4.85-.87.85h-63.09c-.49,0-.88-.4-.88-.88.19-24.99,8.69-48.01,22.86-66.44.61-.79-.38-1.8-1.19-1.22-18.03,13.13-40.18,20.94-64.13,21.13-.48,0-.88-.39-.88-.88v-63.11c0-.47.38-.86.85-.87,24.57-.45,44.4-20.28,44.85-44.86,0-.47.4-.85.87-.85h63.11c.49,0,.88.4.88.88-.19,24.99-8.68,48-22.85,66.43-.61.79.38,1.8,1.19,1.22,17.96-13.08,40.01-20.88,63.88-21.12.62,0,1.12.5,1.12,1.12Z"/>
  <g>
    <path class="cls-1" d="M376.86,531.96v-70.4h33.66c14.63,0,26.07,5.61,26.07,23.1,0,16.39-12.32,22.99-26.07,22.99h-19.14v24.31h-14.52ZM391.38,497.42h18.81c7.37,0,13.09-2.64,13.09-12.76s-6.05-11.22-13.09-11.22h-18.81v23.98Z"/>
    <path class="cls-1" d="M441.65,477.84h13.86v14.52c2.53-10.01,8.91-14.85,16.61-14.85h8.47v12.43l-10.45.22c-7.81.11-14.41,7.7-14.41,16.06v25.74h-14.08v-54.12Z"/>
    <path class="cls-1" d="M510.51,477.29c18.92,0,29.15,10.23,29.15,27.61,0,19.8-12.87,27.61-29.15,27.61s-29.15-7.81-29.15-27.61c0-17.49,10.23-27.61,29.15-27.61ZM526.02,504.9c0-12.32-6.27-16.06-15.51-16.06s-15.51,3.74-15.51,16.06,6.38,16.06,15.51,16.06,15.51-3.74,15.51-16.06Z"/>
    <path class="cls-1" d="M589.71,531.96v-11c-3.41,7.59-11.99,11.55-17.82,11.55-16.28,0-26.51-11.11-26.51-27.61s10.23-27.61,26.51-27.61c5.72,0,13.97,3.19,17.49,11.11v-34.65h14.08v78.21h-13.75ZM589.49,504.9c0-8.91-5.61-16.06-14.96-16.06s-14.96,7.15-14.96,16.06,5.83,16.06,14.96,16.06,14.96-7.15,14.96-16.06Z"/>
    <path class="cls-1" d="M671.53,508.86l15.07.11c-4.18,16.83-20.79,23.76-36.85,23.76-20.9,0-38.61-10.45-38.61-35.97s17.71-35.86,38.61-35.86c19.14,0,34.21,8.47,37.51,26.07h-14.96c-3.08-10.45-11.77-14.08-22.55-14.08-13.75,0-24.09,5.72-24.09,23.87s10.34,23.87,24.09,23.87c9.35,0,17.93-2.86,21.78-11.77Z"/>
    <path class="cls-1" d="M719.93,477.29c18.92,0,29.15,10.23,29.15,27.61,0,19.8-12.87,27.61-29.15,27.61s-29.15-7.81-29.15-27.61c0-17.49,10.23-27.61,29.15-27.61ZM735.44,504.9c0-12.32-6.27-16.06-15.51-16.06s-15.51,3.74-15.51,16.06,6.38,16.06,15.51,16.06,15.51-3.74,15.51-16.06Z"/>
    <path class="cls-1" d="M754.03,531.96v-54.01h13.75v14.41c3.63-9.79,12.1-14.74,19.25-14.85,17.49-.44,20.57,11.66,20.57,23.65v30.8h-14.08v-29.81c0-8.14-3.41-12.98-11.44-12.98-9.35,0-13.97,5.94-13.97,14.96v27.83h-14.08Z"/>
  </g>
  <g>
    <path class="cls-1" d="M381.69,567.5v-11.54h-4.52v-1.63h10.89v1.63h-4.52v11.54h-1.86Z"/>
    <path class="cls-1" d="M389.47,567.5v-14.7h1.8v7.19c.67-1.34,2.22-2.55,3.53-2.55,2.72,0,4.14,1.67,4.14,4.33v5.73h-1.82v-5.54c0-1.78-.82-2.91-2.68-2.91-2.07,0-3.18,1.3-3.18,3.3v5.14h-1.8Z"/>
    <path class="cls-1" d="M410.23,564.18c-.25,2.53-2.03,3.32-4.89,3.32-3.07,0-4.89-2.03-4.89-4.77,0-2.95,1.63-5.31,5.25-5.31,3.14,0,4.83,2.34,4.68,5.56h-8.07c0,1.84,1.48,3.01,3.22,3.01,2.84,0,2.91-1.34,3.03-1.82h1.67ZM408.68,561.92c-.1-1.4-.86-2.91-3.11-2.91-1.94,0-3.26,1.5-3.26,2.91h6.38Z"/>
    <path class="cls-1" d="M417.15,567.5v-13.17h5.92c2.65,0,4.7.96,4.7,4.01,0,2.86-2.19,4.03-4.7,4.03h-4.04v5.12h-1.88ZM419.03,561.17h3.99c1.67,0,2.86-.67,2.86-2.8s-1.34-2.4-2.86-2.4h-3.99v5.21Z"/>
    <path class="cls-1" d="M429.11,557.53h1.8v2.55c.5-1.76,1.42-2.57,3.01-2.57h1.59v1.61h-1.59c-1.74,0-3.01,1.44-3.01,3.24v5.14h-1.8v-9.97Z"/>
    <path class="cls-1" d="M441.36,557.42c2.97,0,5.16,1.46,5.16,5.08s-2.2,5.1-5.16,5.1-5.18-1.48-5.18-5.1,2.22-5.08,5.18-5.08ZM444.7,562.5c0-2.61-1.3-3.49-3.34-3.49s-3.37.88-3.37,3.49,1.34,3.51,3.37,3.51,3.34-.9,3.34-3.51Z"/>
    <path class="cls-1" d="M456.18,567.5v-2.24c-.86,1.57-2.17,2.34-3.55,2.34-2.99,0-5.04-2.13-5.04-5.1s2.05-5.08,5.04-5.08c1.36,0,2.66.73,3.47,2.24v-6.88h1.82v14.72h-1.74ZM456.12,562.5c0-1.99-1.3-3.49-3.34-3.49s-3.37,1.5-3.37,3.49,1.34,3.51,3.37,3.51,3.34-1.55,3.34-3.51Z"/>
    <path class="cls-1" d="M467.97,567.52v-2.36c-.5,1.46-1.44,2.34-3.39,2.45-3.05.19-4.29-1.59-4.29-4.35v-5.73h1.8v5.54c0,1.76.42,3.14,2.7,3.14,2.05,0,3.09-1.57,3.09-3.51v-5.16h1.8v9.97l-1.71.02Z"/>
    <path class="cls-1" d="M479.68,563.88l1.86-.02c-.5,2.63-2.49,3.74-5.06,3.74-2.97,0-5.18-1.48-5.18-5.1s2.22-5.08,5.18-5.08,4.58,1.4,5.1,3.95h-1.84c-.33-1.74-1.53-2.36-3.26-2.36-2.03,0-3.37.88-3.37,3.49s1.34,3.51,3.37,3.51c1.57,0,2.78-.52,3.2-2.13Z"/>
    <path class="cls-1" d="M487.83,567.5h-1.84c-1.53,0-1.86-.82-1.86-2.45v-6.04h-1.69v-1.48h1.74v-2.3h1.76v2.3h1.94v1.48h-1.94v6.02c0,.98.21.98,1.9.98v1.48Z"/>
    <path class="cls-1" d="M501.05,565.66c-.44,1.38-1.82,2.07-3.3,2.13-1.94.08-4.04-.96-4.08-2.97-.08-3.05,2.59-3.37,4.43-3.37h2.97v-1.19c0-1.07-1.34-1.46-2.76-1.48-1.32-.02-2.55.5-2.55,1.57h-1.67c0-2.26,2.05-3.03,4.26-3.03,3.51,0,4.51,1.67,4.51,2.82v5.29c0,.4.25.65.65.65h.19v1.42h-.71c-1.17-.02-1.94-.67-1.94-1.84ZM497.76,566.41c1.28.02,2.72-.61,3.28-2.01v-1.78h-3.01c-.73,0-2.4.08-2.57,1.8-.13,1.28.98,1.96,2.3,1.99Z"/>
    <path class="cls-1" d="M505.39,567.5v-9.97h1.74v2.55c.69-1.76,2.24-2.63,3.57-2.63,2.74,0,4.14,1.67,4.14,4.33v5.73h-1.8v-5.54c0-1.78-.84-2.91-2.7-2.91-2.07,0-3.16,1.3-3.16,3.3v5.14h-1.8Z"/>
    <path class="cls-1" d="M525.07,567.5v-2.24c-.86,1.57-2.17,2.34-3.55,2.34-2.99,0-5.04-2.13-5.04-5.1s2.05-5.08,5.04-5.08c1.36,0,2.66.73,3.47,2.24v-6.88h1.82v14.72h-1.74ZM525,562.5c0-1.99-1.3-3.49-3.34-3.49s-3.37,1.5-3.37,3.49,1.34,3.51,3.37,3.51,3.34-1.55,3.34-3.51Z"/>
    <path class="cls-1" d="M544.97,563.63l2.03.02c-.79,2.74-3.95,3.99-6.56,3.99-3.91,0-7.02-2.11-7.02-6.73s3.12-6.73,7.02-6.73c3.16,0,6.27,1.55,6.73,4.6h-1.94c-.71-2.13-2.53-2.93-4.79-2.93-2.93,0-5.14,1.3-5.14,5.06,0,3.55,2.22,5.06,5.14,5.06,1.9,0,3.66-.63,4.54-2.34Z"/>
    <path class="cls-1" d="M553.08,557.42c2.97,0,5.16,1.46,5.16,5.08s-2.2,5.1-5.16,5.1-5.18-1.48-5.18-5.1,2.22-5.08,5.18-5.08ZM556.43,562.5c0-2.61-1.3-3.49-3.34-3.49s-3.37.88-3.37,3.49,1.34,3.51,3.37,3.51,3.34-.9,3.34-3.51Z"/>
    <path class="cls-1" d="M560.07,567.5v-9.97h1.74v2.55c.69-1.76,2.24-2.63,3.57-2.63,2.74,0,4.14,1.67,4.14,4.33v5.73h-1.8v-5.54c0-1.78-.84-2.91-2.7-2.91-2.07,0-3.16,1.3-3.16,3.3v5.14h-1.8Z"/>
    <path class="cls-1" d="M578.53,560.35c-.02-1.13-1.34-1.55-2.78-1.57-1.32-.02-2.55.48-2.55,1.55,0,2.47,7.28.36,7.28,4.2,0,2.26-1.86,3.14-4.35,3.14-4.18,0-4.64-2.4-4.7-3.53h1.57c.13,1.44,1.74,2.01,2.95,2.07,1.4.06,2.78-.46,2.78-1.55,0-2.05-7.19-.36-7.19-4.26,0-2.28,2.05-3.07,4.26-3.07,3.57,0,4.31,1.88,4.31,3.03h-1.57Z"/>
    <path class="cls-1" d="M589.88,567.52v-2.36c-.5,1.46-1.44,2.34-3.39,2.45-3.05.19-4.29-1.59-4.29-4.35v-5.73h1.8v5.54c0,1.76.42,3.14,2.7,3.14,2.05,0,3.09-1.57,3.09-3.51v-5.16h1.8v9.97l-1.71.02Z"/>
    <path class="cls-1" d="M593.98,567.5v-14.93h1.8v14.93h-1.8Z"/>
    <path class="cls-1" d="M602.76,567.5h-1.84c-1.53,0-1.86-.82-1.86-2.45v-6.04h-1.69v-1.48h1.74v-2.3h1.76v2.3h1.94v1.48h-1.94v6.02c0,.98.21.98,1.9.98v1.48Z"/>
    <path class="cls-1" d="M605.54,554.1c.65,0,1.23.44,1.23,1.15s-.54,1.19-1.23,1.19-1.21-.46-1.21-1.17c0-.67.54-1.17,1.21-1.17ZM604.64,567.5v-9.97h1.8v9.97h-1.8Z"/>
    <path class="cls-1" d="M609.03,567.5v-9.97h1.74v2.55c.69-1.76,2.24-2.63,3.57-2.63,2.74,0,4.14,1.67,4.14,4.33v5.73h-1.8v-5.54c0-1.78-.84-2.91-2.7-2.91-2.07,0-3.16,1.3-3.16,3.3v5.14h-1.8Z"/>
    <path class="cls-1" d="M626.13,569.53c1.57,0,2.68-.21,2.68-2.3v-2.34c-.75,1.65-2.22,2.61-3.6,2.61-2.84,0-5.06-2.01-5.06-5.04s2.22-5.04,5.06-5.04c1.4,0,2.61.75,3.68,2.7v-2.61h1.71v9.64c0,3.05-1.69,3.99-4.47,3.99h-4.77v-1.61h4.77ZM628.85,562.44c0-2.13-1.48-3.43-3.43-3.43s-3.45,1.28-3.45,3.43,1.53,3.47,3.45,3.47,3.43-1.36,3.43-3.47Z"/>
    <path class="cls-1" d="M648.64,563.63l2.03.02c-.79,2.74-3.95,3.99-6.56,3.99-3.91,0-7.02-2.11-7.02-6.73s3.12-6.73,7.02-6.73c3.16,0,6.27,1.55,6.73,4.6h-1.94c-.71-2.13-2.53-2.93-4.79-2.93-2.93,0-5.14,1.3-5.14,5.06,0,3.55,2.22,5.06,5.14,5.06,1.9,0,3.66-.63,4.54-2.34Z"/>
    <path class="cls-1" d="M652.81,567.5v-14.93h1.8v14.93h-1.8Z"/>
    <path class="cls-1" d="M664.66,567.52v-2.36c-.5,1.46-1.44,2.34-3.39,2.45-3.05.19-4.29-1.59-4.29-4.35v-5.73h1.8v5.54c0,1.76.42,3.14,2.7,3.14,2.05,0,3.09-1.57,3.09-3.51v-5.16h1.8v9.97l-1.71.02Z"/>
    <path class="cls-1" d="M668.76,567.5v-14.72h1.8v7.09c.92-1.53,1.96-2.45,3.49-2.45,2.99,0,5.04,2.11,5.04,5.08s-2.05,5.1-5.04,5.1c-1.69,0-3.05-1.53-3.55-2.55v2.45h-1.74ZM677.27,562.5c0-1.99-1.34-3.49-3.37-3.49s-3.37,1.5-3.37,3.49,1.32,3.51,3.37,3.51,3.37-1.55,3.37-3.51Z"/>
    <path class="cls-1" d="M690.02,557.42c2.97,0,5.16,1.46,5.16,5.08s-2.2,5.1-5.16,5.1-5.18-1.48-5.18-5.1,2.22-5.08,5.18-5.08ZM693.36,562.5c0-2.61-1.3-3.49-3.34-3.49s-3.37.88-3.37,3.49,1.34,3.51,3.37,3.51,3.34-.9,3.34-3.51Z"/>
    <path class="cls-1" d="M697.17,559.01h-1.48v-1.48h1.5v-2.24c0-1.17.31-1.44,1.82-1.44h3.32v1.44l-2.42-.02c-1.07,0-.96,0-.96.46v1.8h2.91v1.48h-2.86v8.49h-1.82v-8.49Z"/>
    <path class="cls-1" d="M719.62,567.5h-2.93l-6.52-11.81v11.81h-1.88v-13.17h2.97l6.48,11.67v-11.67h1.88v13.17Z"/>
    <path class="cls-1" d="M724.43,554.33v13.17h-1.84v-13.17h1.84Z"/>
    <path class="cls-1" d="M730.56,567.5v-11.54h-4.52v-1.63h10.89v1.63h-4.52v11.54h-1.86Z"/>
    <path class="cls-1" d="M737.23,561.65v-1.57h5.06v1.57h-5.06Z"/>
    <path class="cls-1" d="M744.69,567.5v-13.17h5.89c2.2,0,4.72.75,4.72,3.41,0,1.82-1.34,2.84-4.14,2.99v.1c3.47,0,4.83.65,4.83,3.12,0,2.86-2.68,3.55-5.04,3.55h-6.27ZM746.57,560.27h3.85c1.4,0,3.01-.63,3.01-2.32s-1.61-2.09-3.01-2.09h-3.85v4.41ZM746.57,565.97h4.33c1.5,0,3.2-.31,3.2-2.19s-1.69-2.4-3.2-2.4h-4.33v4.6Z"/>
    <path class="cls-1" d="M758.05,567.5v-14.7h1.8v7.19c.67-1.34,2.22-2.55,3.53-2.55,2.72,0,4.14,1.67,4.14,4.33v5.73h-1.82v-5.54c0-1.78-.82-2.91-2.68-2.91-2.07,0-3.18,1.3-3.18,3.3v5.14h-1.8Z"/>
    <path class="cls-1" d="M774.29,557.42c2.97,0,5.16,1.46,5.16,5.08s-2.2,5.1-5.16,5.1-5.18-1.48-5.18-5.1,2.22-5.08,5.18-5.08ZM777.64,562.5c0-2.61-1.3-3.49-3.34-3.49s-3.37.88-3.37,3.49,1.34,3.51,3.37,3.51,3.34-.9,3.34-3.51Z"/>
    <path class="cls-1" d="M781.28,571.89v-14.38h1.74v2.45c.42-1.15,1.94-2.53,3.55-2.53,2.99,0,5.04,2.11,5.04,5.08s-2.05,5.1-5.04,5.1c-1.59,0-3.05-1.38-3.49-2.47v6.75h-1.8ZM789.78,562.5c0-1.99-1.34-3.49-3.37-3.49s-3.37,1.55-3.37,3.49,1.32,3.51,3.37,3.51,3.37-1.55,3.37-3.51Z"/>
    <path class="cls-1" d="M799.99,565.66c-.44,1.38-1.82,2.07-3.3,2.13-1.94.08-4.04-.96-4.08-2.97-.08-3.05,2.59-3.37,4.43-3.37h2.97v-1.19c0-1.07-1.34-1.46-2.76-1.48-1.32-.02-2.55.5-2.55,1.57h-1.67c0-2.26,2.05-3.03,4.26-3.03,3.51,0,4.51,1.67,4.51,2.82v5.29c0,.4.25.65.65.65h.19v1.42h-.71c-1.17-.02-1.94-.67-1.94-1.84ZM796.71,566.41c1.28.02,2.72-.61,3.28-2.01v-1.78h-3.01c-.73,0-2.4.08-2.57,1.8-.13,1.28.98,1.96,2.3,1.99Z"/>
    <path class="cls-1" d="M804.34,567.5v-14.93h1.8v14.93h-1.8Z"/>
  </g>
</svg>